SplineFontDB: 3.2
FontName: MiaSlafhauzer
FullName: MiaSlafhauzer
FamilyName: MiaSlafhauzer
Weight: Regular
Copyright: Copyright (c) 2023, Mia
UComments: "2023-3-18: Created with FontForge (http://fontforge.org)"
Version: 001.000
ItalicAngle: 0
UnderlinePosition: -100
UnderlineWidth: 50
Ascent: 800
Descent: 200
InvalidEm: 0
LayerCount: 3
Layer: 0 0 "Back" 1
Layer: 1 0 "Fore" 0
Layer: 2 0 "Back 2" 1
XUID: [1021 513 -1024696081 24078]
OS2Version: 0
OS2_WeightWidthSlopeOnly: 0
OS2_UseTypoMetrics: 1
CreationTime: 1679128197
ModificationTime: 1679153167
OS2TypoAscent: 0
OS2TypoAOffset: 1
OS2TypoDescent: 0
OS2TypoDOffset: 1
OS2TypoLinegap: 0
OS2WinAscent: 0
OS2WinAOffset: 1
OS2WinDescent: 0
OS2WinDOffset: 1
HheadAscent: 0
HheadAOffset: 1
HheadDescent: 0
HheadDOffset: 1
OS2Vendor: 'PfEd'
MarkAttachClasses: 1
DEI: 91125
Encoding: iso8859-2
UnicodeInterp: none
NameList: AGL For New Fonts
DisplaySize: -48
AntiAlias: 1
FitToEm: 0
WinInfo: 0 38 13
BeginPrivate: 0
EndPrivate
Grid
-1000 334 m 0
 2000 334 l 1024
-1000 602.333333333 m 0
 2000 602.333333333 l 1024
EndSplineSet
BeginChars: 256 25

StartChar: M
Encoding: 77 77 0
Width: 442
Flags: HW
LayerCount: 3
Fore
SplineSet
70.4638671875 400.391601562 m 1
 71.8486328125 384.698242188 69.6513671875 368.46484375 58.0263671875 350.810546875 c 0
 -11.91796875 244.581054688 7.775390625 99.5458984375 10.990234375 49.125 c 1
 13.4013671875 -0.4560546875 62.4267578125 2.90625 62.4267578125 2.90625 c 1
 103.233398438 2.51171875 192.625976562 -18.9423828125 172.533203125 89.4619140625 c 1
 166.104492188 134.840820312 116.275390625 193.665039062 124.311523438 215.514648438 c 1
 164.497070312 267.616210938 153.22265625 348.35546875 151.637695312 358.374023438 c 0
 141.083984375 425.107421875 178.16015625 402.072265625 185.823242188 353.33203125 c 1
 191.397460938 272.857421875 l 17
 194.33984375 252.985351562 236.1328125 250.462890625 239.84765625 271.481445312 c 9
 239.84765625 272.857421875 l 25
 253.708007812 353.33203125 l 1
 257.7265625 408.794921875 289.357421875 414.579101562 281.139648438 358.029296875 c 0
 268.978515625 274.33984375 300.130859375 211.712890625 299.518554688 212.153320312 c 1
 305.14453125 170.9765625 271.721679688 152.575195312 259.333984375 94.5048828125 c 1
 231.204101562 -2.13671875 335.8671875 2.51171875 376.673828125 2.90625 c 1
 376.673828125 2.90625 425.69921875 -0.4560546875 428.110351562 49.125 c 1
 431.325195312 99.5458984375 451.018554688 244.581054688 381.07421875 350.810546875 c 0
 369.450195312 368.46484375 367.251953125 384.698242188 368.63671875 400.391601562 c 1
 388.729492188 528.125 l 1
 411.313476562 639.427734375 259.9765625 633.239257812 222.36328125 507.116210938 c 9
 219.149414062 492.830078125 l 1
 219.149414062 492.830078125 217.541992188 502.073242188 215.93359375 507.956054688 c 16
 178.3203125 634.080078125 27.787109375 639.427734375 50.37109375 528.125 c 1
 70.4638671875 400.391601562 l 1
EndSplineSet
EndChar

StartChar: i
Encoding: 105 105 1
Width: 153
Flags: HW
LayerCount: 3
Fore
SplineSet
35.5986328125 399.163085938 m 0
 35.5986328125 415.790039062 52.0576171875 429.860351562 72.2568359375 429.860351562 c 0
 92.45703125 429.860351562 108.915039062 415.790039062 108.915039062 399.163085938 c 0
 108.915039062 382.53515625 92.45703125 368.465820312 72.2568359375 368.465820312 c 0
 52.0576171875 368.465820312 35.5986328125 382.53515625 35.5986328125 399.163085938 c 0
31.8583984375 326.908203125 m 1
 43.828125 333.943359375 84.2265625 341.6171875 111.16015625 326.268554688 c 1
 111.16015625 326.268554688 135.84765625 310.280273438 127.618164062 294.291992188 c 1
 53.5537109375 177.258789062 183.581054688 77.73828125 126.870117188 16.7373046875 c 1
 120.13671875 7.14453125 102.181640625 2.0283203125 102.181640625 2.0283203125 c 1
 91.7080078125 -1.80859375 50.5615234375 1.388671875 49.8134765625 1.388671875 c 1
 24.376953125 4.5869140625 20.6357421875 12.900390625 16.1474609375 18.65625 c 1
 -29.48828125 90.921875 90.2119140625 148.48046875 15.3994140625 297.490234375 c 1
 10.162109375 317.315429688 31.8583984375 326.908203125 31.8583984375 326.908203125 c 1
EndSplineSet
EndChar

StartChar: a
Encoding: 97 97 2
Width: 238
Flags: HW
LayerCount: 3
Fore
SplineSet
122.8515625 161.404296875 m 1
 80.125 143.408203125 94.01171875 105.618164062 110.034179688 104.71875 c 1
 134.030273438 103.809570312 130.329101562 129.912109375 126.056640625 147.0078125 c 9
 122.8515625 161.404296875 l 1
8.044921875 291.009765625 m 0
 19.7001953125 323.76953125 166.219726562 347.365234375 210.065429688 314.41015625 c 1
 221.165039062 302.709960938 198.583007812 275.127929688 195.080078125 266.440429688 c 0
 155.5078125 168.301757812 256.224609375 159.384765625 222.370117188 24.8349609375 c 0
 221.380859375 20.90625 221.165039062 16.64453125 219.5 10.794921875 c 0
 218.564453125 7.5068359375 217.280273438 6.7001953125 217.280273438 6.7001953125 c 0
 150.125 -4.4150390625 121.8203125 0.2646484375 74.08984375 14.8896484375 c 0
 -4.828125 39.0712890625 31.91015625 137.155273438 31.91015625 137.155273438 c 1
 39.6796875 158.799804688 49.3515625 178.150390625 55.2197265625 184.540039062 c 0
 73.701171875 204.661132812 87.3740234375 195.693359375 119.044921875 200.919921875 c 1
 168.440429688 223.150390625 127.537109375 291.385742188 57.9951171875 249.474609375 c 0
 54.08203125 247.1171875 47.4501953125 243.040039062 37.4599609375 244.209960938 c 1
 25.044921875 239.892578125 1.7373046875 273.280273438 8.044921875 291.009765625 c 0
EndSplineSet
EndChar

StartChar: Scaron
Encoding: 169 352 4
Width: 338
Flags: HW
LayerCount: 3
Fore
SplineSet
248.783203125 704.866210938 m 5
 261.0859375 684.91796875 227.672851562 630.239257812 200.360351562 630.239257812 c 4
 183.333984375 630.239257812 142.125976562 659.329101562 152.879882812 707.262695312 c 5
 158.256835938 727.635742188 191.420898438 739.625 201.280273438 683.294921875 c 5
 212.036132812 743.212890625 239.537109375 725.03515625 248.783203125 704.866210938 c 5
221.401367188 478.76953125 m 1052
-6.9111328125 245.860351562 m 1048
295.974609375 526.745117188 m 5
 295.60546875 619.454101562 99.18359375 636.778320312 75.8515625 505.959960938 c 5
 59.6806640625 436.205078125 95.107421875 415.091796875 151.956054688 343.991210938 c 5
 184.702148438 326.74609375 191.62890625 251.83984375 119.611328125 302.608398438 c 4
 52.4873046875 349.92578125 -0.25390625 349.901367188 5.453125 237.583984375 c 5
 0.6962890625 109.90234375 90.1220703125 20.048828125 153.858398438 2.3134765625 c 5
 329.853515625 -34.3388671875 401.610351562 237.331054688 272.774414062 355.811523438 c 5
 245.186523438 404.282226562 130.077148438 449.209960938 174.790039062 501.229492188 c 5
 182.544921875 511.274414062 209.036132812 517.782226562 219.499023438 498.866210938 c 5
 221.401367188 496.5 221.401367188 490.5859375 220.40234375 487.041015625 c 4
 194.947265625 396.720703125 291.088867188 386.078125 295.974609375 526.745117188 c 5
EndSplineSet
EndChar

StartChar: l
Encoding: 108 108 6
Width: 183
Flags: HW
LayerCount: 3
Fore
SplineSet
48.396484375 469.255859375 m 1
 42.98046875 546.188476562 143.756835938 530.775390625 139.615234375 466.55859375 c 1
 143.76171875 446.774414062 135.474609375 417.874023438 134.086914062 400.017578125 c 1
 98.416015625 278.204101562 208.75 218.094726562 175.157226562 61.75390625 c 1
 147.408203125 -43.20703125 29.10546875 8.1728515625 19.3720703125 51.1220703125 c 1
 -27.125 188.000976562 90.029296875 298.6171875 58.0703125 380.234375 c 1
 53.923828125 394.620117188 44.2490234375 437.782226562 48.396484375 469.255859375 c 1
EndSplineSet
EndChar

StartChar: f
Encoding: -1 102 7
Width: 344
Flags: HW
LayerCount: 3
Fore
SplineSet
261.158203125 557.276367188 m 1
 252.794921875 559.424804688 230.0625 550.3125 222.485351562 547.275390625 c 0
 111.044921875 502.603515625 97.7734375 537.806640625 45.9443359375 550.465820312 c 1
 8.833984375 556.465820312 10.7861328125 467.984375 43.9921875 475.482421875 c 1
 99.0283203125 491.400390625 145.946289062 496.711914062 252.0078125 466.486328125 c 1
 278.375 451.48828125 307.09375 533.100585938 261.158203125 557.276367188 c 1
240.887695312 762.9375 m 1
 161.865234375 794.325195312 39.54296875 777.112304688 33.0478515625 697.125 c 1
 32.291015625 687.1328125 27 684 51.4501953125 665.737304688 c 4
 179.891812299 569.799824987 -63 161 20.22265625 51.0751953125 c 0
 98.3330078125 -52.09765625 228.187030626 26.0025455692 237.990234375 40.037109375 c 4
 268 83 230 221 189 294 c 4
 141.839348462 377.968964933 152.96224275 519.925964781 177.205078125 627.362304688 c 0
 184.89453125 661.439453125 207.075195312 673.399414062 230.0625 659.662109375 c 0
 243.052734375 651.899414062 253.319335938 630.141601562 253.877929688 629.287109375 c 0
 335.69140625 504.110351562 402.1796875 707.25 240.887695312 762.9375 c 1
EndSplineSet
EndChar

StartChar: f
Encoding: 102 102 8
Width: 197
Flags: HW
LayerCount: 3
Fore
SplineSet
154.116210938 388.482421875 m 1
 149.484375 389.974609375 136.890625 383.649414062 132.693359375 381.541992188 c 0
 70.95703125 350.532226562 63.60546875 374.967773438 34.89453125 383.754882812 c 1
 14.3349609375 387.91796875 15.4169921875 326.5 33.8125 331.705078125 c 1
 64.30078125 342.755859375 90.2919921875 346.44140625 149.047851562 325.4609375 c 1
 163.655273438 315.05078125 179.564453125 371.700195312 154.116210938 388.482421875 c 1
142.888671875 531.240234375 m 1
 99.1103515625 553.026367188 31.3466796875 541.081054688 27.7490234375 485.556640625 c 1
 27.330078125 478.62109375 24.3994140625 476.447265625 37.943359375 463.771484375 c 0
 109.096679688 397.173828125 -25.4580078125 113.408203125 20.64453125 37.1064453125 c 0
 63.9140625 -34.5107421875 139.848632812 21.388671875 146.823242188 29.443359375 c 0
 168.43359375 54.408203125 142.396484375 155.057617188 119.682617188 205.732421875 c 0
 93.5556640625 264.016601562 94.1806640625 362.555664062 107.610351562 437.130859375 c 0
 111.868164062 460.786132812 124.157226562 469.088867188 136.890625 459.552734375 c 0
 144.086914062 454.165039062 149.7734375 439.0625 150.084960938 438.46875 c 0
 195.40625 351.576171875 232.239257812 492.586914062 142.888671875 531.240234375 c 1
EndSplineSet
EndChar

StartChar: h
Encoding: 104 104 9
Width: 300
Flags: HW
LayerCount: 3
Fore
SplineSet
37.98046875 546.103515625 m 1029
42.4912109375 543.309570312 m 5
 -25.619140625 485.163085938 71.2919921875 516.654296875 40.6865234375 154.173828125 c 4
 39.046875 134.749023438 11.3671875 49.6220703125 51.9638671875 17.193359375 c 5
 87.8369140625 -3.271484375 113.547851562 -7.2568359375 128.587890625 17.193359375 c 5
 153.520507812 66.630859375 98.232421875 185.19921875 121.37109375 231.888671875 c 5
 132.522460938 248.57421875 140.801757812 259.365234375 163.827148438 231.888671875 c 5
 178.24609375 221.948242188 135.143554688 59.7734375 168.337890625 13.83984375 c 5
 179.1640625 2.3232421875 231.122070312 -9.4375 250.967773438 12.8271484375 c 5
 314.607421875 71.685546875 213.373046875 120.795898438 244.65234375 240.942382812 c 4
 246.673828125 248.705078125 262.315429688 276.329101562 223.310546875 311.034179688 c 4
 184.354492188 345.6953125 161.215820312 317.520507812 138.9609375 307.12109375 c 4
 127.864257812 301.934570312 122.19921875 312.543945312 122.330078125 312.399414062 c 5
 49.7080078125 400.1796875 190.58203125 484.958007812 106.993164062 544.986328125 c 5
 87.8955078125 553.188476562 66.365234375 554.260742188 42.4912109375 543.309570312 c 5
EndSplineSet
EndChar

StartChar: u
Encoding: -1 117 10
Width: 333
Flags: HW
LayerCount: 3
Fore
SplineSet
31.7978515625 563.241210938 m 1
 24.296875 559.635742188 30.2890625 547.614257812 31.7978515625 542.8046875 c 0
 87.1376953125 366.44921875 -41.94921875 214.623046875 19.2978515625 60.751953125 c 1
 36.7978515625 0.6435546875 231.7890625 -35.419921875 309.287109375 76.37890625 c 1
 339.28515625 128.0703125 330.455078125 247.357421875 303.0546875 297.5703125 c 0
 263.0390625 370.900390625 325.537109375 534.388671875 298.038085938 564.443359375 c 1
 295.538085938 586.081054688 208.041992188 592.090820312 178.041992188 565.646484375 c 1
 137.879882812 553.8828125 210.541992188 481.497070312 193.041015625 318.005859375 c 1
 190.541992188 304.783203125 160.541992188 277.134765625 131.79296875 320.41015625 c 1
 126.794921875 345.655273438 131.79296875 337.240234375 144.293945312 404.560546875 c 0
 152.071289062 446.446289062 162.810546875 549.666015625 130.543945312 570.452148438 c 1
 98.4619140625 591.045898438 63.87890625 576.106445312 31.7978515625 563.241210938 c 1
EndSplineSet
EndChar

StartChar: z
Encoding: -1 122 11
Width: 436
Flags: HW
LayerCount: 3
Fore
SplineSet
209.916992188 280.291992188 m 5
 197.55078125 334.50390625 199.387695312 346.606445312 203.900390625 349.59375 c 5
 226.462890625 335.852539062 361.338867188 399.778320312 406.96484375 356.762695312 c 5
 432.03515625 337.047851562 219.443359375 118.985351562 410.474609375 215.171875 c 5
 433.038085938 229.509765625 448.581054688 40.7216796875 415.990234375 26.3837890625 c 5
 343.119140625 -13.53125 244.01171875 2.486328125 214.4296875 22.798828125 c 5
 199.91015625 34.162109375 210.418945312 172.157226562 235.48828125 195.45703125 c 5
 249.52734375 216.366210938 301.671875 262.965820312 282.620117188 284.473632812 c 5
 262.563476562 315.540039062 235.48828125 201.430664062 209.916992188 280.291992188 c 5
EndSplineSet
EndChar

StartChar: u
Encoding: 117 117 12
Width: 210
Flags: HW
LayerCount: 3
Fore
SplineSet
27 301 m 1
 3 275 56.4150390625 254.452148438 20.6005859375 146 c 0
 -2.767578125 75.234375 -11.767578125 40.958984375 46 9 c 1
 51.3017578125 5.96484375 144 -10 165 12 c 0
 193.364257812 41.71484375 204.620117188 104.638671875 193 133 c 0
 172.091796875 184.032226562 221.9765625 280.173828125 203 301 c 1
 188 323 122 310 121 301 c 1
 117 301 117.16796875 293.223632812 121.483398438 272 c 0
 136.142578125 199.901367188 122.274414062 211.983398438 123 181 c 1
 122 160 91 156 87 178 c 1
 72.37109375 209.426757812 113 266 88 301 c 1
 71 320 32 313 27 301 c 1
EndSplineSet
EndChar

StartChar: z
Encoding: 122 122 13
Width: 222
Flags: HW
LayerCount: 3
Fore
SplineSet
21.94140625 252.637695312 m 5
 11.1943359375 301.477539062 12.7919921875 312.381835938 16.7119140625 315.072265625 c 5
 36.318359375 302.693359375 153.518554688 360.284179688 193.166015625 321.53125 c 5
 214.950195312 303.76953125 30.2177734375 107.3125 196.215820312 193.969726562 c 5
 215.822265625 206.88671875 229.330078125 36.8046875 201.008789062 23.88671875 c 5
 137.686523438 -12.0732421875 51.5673828125 2.3583984375 25.861328125 20.6572265625 c 5
 13.2451171875 30.8955078125 22.3759765625 155.217773438 44.16015625 176.208007812 c 5
 56.3603515625 195.046875 101.670898438 237.028320312 85.115234375 256.405273438 c 5
 67.6875 284.393554688 44.16015625 181.58984375 21.94140625 252.637695312 c 5
EndSplineSet
EndChar

StartChar: ccaron
Encoding: 232 269 14
Width: 244
Flags: HW
LayerCount: 3
Fore
SplineSet
172.982421875 414.692382812 m 5
 185.458007812 399.662109375 151.577148438 358.461914062 123.881835938 358.461914062 c 4
 106.614257812 358.461914062 64.828125 380.3828125 75.7333984375 416.498046875 c 5
 81.1865234375 431.849609375 114.815429688 440.885742188 124.813476562 398.440429688 c 5
 135.720703125 443.586914062 163.607421875 429.890625 172.982421875 414.692382812 c 5
164.387695312 322.83203125 m 1
 123.860351562 343.989257812 32.3642578125 331.98046875 28.06640625 297.099609375 c 1
 28.06640625 297.099609375 -23.6201171875 71.544921875 29.2939453125 33.4912109375 c 0
 87.5439453125 -8.400390625 155.16796875 5.2841796875 156.40625 4.3291015625 c 0
 178.483398438 -12.708984375 285.360351562 87.814453125 216.584960938 170.7265625 c 1
 190.1796875 201.60546875 94.9990234375 142.708007812 105.4375 237.05859375 c 1
 130.616210938 322.260742188 161.82421875 141.463867188 228.865234375 266.22265625 c 1
 235.005859375 289.666015625 187.109375 313.110351562 164.387695312 322.83203125 c 1
EndSplineSet
EndChar

StartChar: r
Encoding: 114 114 15
Width: 222
Flags: HW
LayerCount: 3
Fore
SplineSet
10.283203125 6.0986328125 m 1
 16.423828125 -3.298828125 63.6357421875 -0.0419921875 89.4921875 6.0986328125 c 1
 197.560546875 36.7998046875 23.177734375 154.973632812 116.508789062 230.40625 c 1
 130.07421875 246.026367188 144.75390625 247.32421875 146.651367188 240.5 c 0
 160.299804688 191.440429688 173.055664062 195.901367188 190.862304688 192.142578125 c 1
 219.6640625 193.440429688 219.05078125 298.075195312 199.181640625 313.787109375 c 1
 156.420898438 374.09765625 85.1943359375 245.444335938 81.5107421875 298.702148438 c 1
 80.48828125 314.993164062 78.2373046875 327.5234375 69.84375 328.776367188 c 1
 -13.126953125 339.118164062 7.8271484375 294.315429688 16.423828125 269.25390625 c 1
 66.6044921875 162.904296875 -12.9072265625 51.3466796875 10.283203125 6.0986328125 c 1
EndSplineSet
EndChar

StartChar: cacute
Encoding: 230 263 16
Width: 249
Flags: HW
LayerCount: 3
Fore
SplineSet
124.76953125 410.641601562 m 4
 163.810546875 440.65234375 186.126953125 434.546875 192.453125 423.640625 c 5
 218.93359375 397.202148438 124.920898438 349.180664062 109.888671875 361.704101562 c 5
 107.840820312 358.3515625 86.3369140625 381.100585938 124.76953125 410.641601562 c 4
169.6796875 322.62109375 m 5
 127.928710938 343.859375 33.6728515625 331.806640625 29.24609375 296.793945312 c 5
 29.24609375 296.793945312 -23.9990234375 70.388671875 30.51171875 32.1923828125 c 4
 90.517578125 -9.857421875 160.1796875 3.87890625 161.456054688 2.9189453125 c 4
 184.19921875 -14.1826171875 294.298828125 86.7197265625 223.448242188 169.9453125 c 5
 196.248046875 200.939453125 98.197265625 141.8203125 108.950195312 236.525390625 c 5
 134.887695312 322.047851562 167.0390625 140.572265625 236.1015625 265.798828125 c 5
 242.427734375 289.33203125 193.084960938 312.864257812 169.6796875 322.62109375 c 5
EndSplineSet
EndChar

StartChar: e
Encoding: 101 101 17
Width: 288
Flags: HW
LayerCount: 3
Fore
SplineSet
163 271 m 1
 165 282 212 290 223 278 c 1
 225 275 230.124023438 263.234375 211 258 c 1
 186.2890625 252.34375 161 253 163 271 c 1
140 222 m 1
 143 223 143.020507812 219.279296875 144.529296875 218 c 0
 265.852539062 115.12109375 378.346679688 359.552734375 137 330 c 0
 88 324 58 313 25 222 c 1
 25 222 -4.501953125 95.8994140625 30 57 c 0
 110.267578125 -33.4990234375 298.799804688 -0.6884765625 269 120 c 1
 258 163 223.03515625 211.055664062 173 137 c 1
 150 114 76 191 140 222 c 1
EndSplineSet
EndChar

StartChar: Ccaron
Encoding: 200 268 18
Width: 298
Flags: HW
LayerCount: 3
Fore
SplineSet
206.779296875 558.03515625 m 1
 221.75 537.744140625 181.092773438 482.124023438 147.858398438 482.124023438 c 0
 127.13671875 482.124023438 76.994140625 511.716796875 90.080078125 560.47265625 c 1
 96.6240234375 581.197265625 136.978515625 593.395507812 148.9765625 536.094726562 c 1
 162.064453125 597.041992188 195.529296875 578.552734375 206.779296875 558.03515625 c 1
196.46484375 434.0234375 m 1
 147.83203125 462.5859375 38.037109375 446.374023438 32.8798828125 399.284179688 c 1
 32.8798828125 399.284179688 -29.14453125 94.7861328125 34.3525390625 43.4130859375 c 0
 104.252929688 -13.140625 185.401367188 5.333984375 186.887695312 4.0439453125 c 0
 213.379882812 -18.95703125 341.6328125 116.75 259.1015625 228.680664062 c 1
 227.416015625 270.3671875 113.19921875 190.85546875 125.724609375 318.229492188 c 1
 155.939453125 433.251953125 193.388671875 189.17578125 273.837890625 357.600585938 c 1
 281.20703125 389.249023438 223.731445312 420.899414062 196.46484375 434.0234375 c 1
EndSplineSet
EndChar

StartChar: Cacute
Encoding: 198 262 19
Width: 301
Flags: HW
LayerCount: 3
Fore
SplineSet
148.311523438 563.565429688 m 0
 195.55078125 604.98046875 222.553710938 596.5546875 230.208007812 581.50390625 c 1
 262.25 545.018554688 148.494140625 478.749023438 130.305664062 496.03125 c 1
 127.827148438 491.405273438 101.807617188 522.798828125 148.311523438 563.565429688 c 0
202.65234375 442.096679688 m 1
 152.133789062 471.40625 38.083984375 454.7734375 32.7275390625 406.456054688 c 1
 32.7275390625 406.456054688 -31.69921875 94.0166015625 34.2587890625 41.3056640625 c 0
 106.866210938 -16.7236328125 191.157226562 2.232421875 192.702148438 0.908203125 c 0
 220.220703125 -22.6923828125 353.44140625 116.552734375 267.711914062 231.404296875 c 1
 234.799804688 274.176757812 116.158203125 192.591796875 129.169921875 323.28515625 c 1
 160.553710938 441.305664062 199.45703125 190.870117188 283.022460938 363.682617188 c 1
 290.677734375 396.158203125 230.97265625 428.6328125 202.65234375 442.096679688 c 1
EndSplineSet
EndChar

StartChar: zcaron
Encoding: 190 382 20
Width: 230
Flags: HW
LayerCount: 3
Fore
SplineSet
135.827148438 382.5859375 m 1
 144.719726562 372.084960938 120.567382812 343.297851562 100.82421875 343.297851562 c 0
 88.515625 343.297851562 58.7275390625 358.61328125 66.501953125 383.846679688 c 1
 70.3896484375 394.573242188 94.36328125 400.887695312 101.490234375 371.231445312 c 1
 109.265625 402.7734375 129.14453125 393.204101562 135.827148438 382.5859375 c 1
23.34375 251.791992188 m 1
 13.255859375 300.603515625 14.7548828125 311.500976562 18.4345703125 314.190429688 c 1
 36.837890625 301.818359375 146.845703125 359.374023438 184.059570312 320.645507812 c 1
 204.506835938 302.893554688 31.11328125 106.5546875 186.921875 193.159179688 c 1
 205.32421875 206.069335938 218.002929688 36.087890625 191.420898438 23.1796875 c 1
 131.984375 -12.7607421875 51.150390625 1.6630859375 27.021484375 19.9501953125 c 1
 15.1796875 30.1826171875 23.7509765625 154.430664062 44.197265625 175.408203125 c 1
 55.650390625 194.235351562 98.1796875 236.19140625 82.6396484375 255.556640625 c 1
 66.28125 283.529296875 44.197265625 180.787109375 23.34375 251.791992188 c 1
EndSplineSet
EndChar

StartChar: Zcaron
Encoding: 174 381 21
Width: 304
Flags: HW
LayerCount: 3
Fore
SplineSet
172.982421875 547.692382812 m 5
 185.458007812 532.662109375 151.577148438 491.461914062 123.881835938 491.461914062 c 4
 106.614257812 491.461914062 64.828125 513.3828125 75.7333984375 549.498046875 c 5
 81.1865234375 564.849609375 114.815429688 573.885742188 124.813476562 531.440429688 c 5
 135.720703125 576.586914062 163.607421875 562.890625 172.982421875 547.692382812 c 5
15.1904296875 360.4921875 m 5
 1.0390625 430.353515625 3.142578125 445.951171875 8.3046875 449.799804688 c 5
 34.1201171875 432.091796875 188.4375 514.470703125 240.641601562 459.0390625 c 5
 269.32421875 433.631835938 26.087890625 152.620117188 244.657226562 276.57421875 c 5
 270.47265625 295.05078125 288.258789062 51.765625 250.967773438 33.287109375 c 5
 167.591796875 -18.1494140625 54.1982421875 2.4931640625 20.3515625 28.66796875 c 5
 3.7392578125 43.3125 15.7626953125 221.143554688 44.4453125 251.16796875 c 5
 60.509765625 278.115234375 120.169921875 338.165039062 98.37109375 365.881835938 c 5
 75.423828125 405.916015625 44.4453125 258.866210938 15.1904296875 360.4921875 c 5
EndSplineSet
EndChar

StartChar: scaron
Encoding: 185 353 22
Width: 250
Flags: HW
LayerCount: 3
Fore
SplineSet
170.944335938 392.604492188 m 1
 179.05078125 381.490234375 157.03125 351.024414062 139.032226562 351.024414062 c 0
 127.811523438 351.024414062 100.654296875 367.232421875 107.740234375 393.940429688 c 1
 111.28515625 405.291992188 133.140625 411.970703125 139.637695312 380.5859375 c 1
 146.7265625 413.970703125 164.850585938 403.841796875 170.944335938 392.604492188 c 1
152.897460938 266.629882812 m 1048
202.04296875 293.361328125 m 1
 201.799804688 345.015625 72.3544921875 354.66796875 56.978515625 281.779296875 c 1
 46.3212890625 242.9140625 69.66796875 231.151367188 107.1328125 191.53515625 c 1
 128.711914062 181.926757812 133.27734375 140.19140625 85.8173828125 168.477539062 c 0
 41.5810546875 194.841796875 6.8232421875 194.829101562 10.5849609375 132.248046875 c 1
 7.44921875 61.107421875 66.3828125 11.04296875 108.385742188 1.162109375 c 1
 224.37109375 -19.259765625 271.659179688 132.106445312 186.75390625 198.120117188 c 1
 168.573242188 225.127929688 92.7138671875 250.16015625 122.180664062 279.143554688 c 1
 127.291015625 284.740234375 144.749023438 288.366210938 151.64453125 277.826171875 c 1
 152.897460938 276.508789062 152.897460938 273.213867188 152.239257812 271.237304688 c 0
 135.46484375 220.9140625 198.82421875 214.985351562 202.04296875 293.361328125 c 1
EndSplineSet
EndChar

StartChar: Dcroat
Encoding: 208 272 23
Width: 442
Flags: HW
LayerCount: 3
Fore
SplineSet
196 454 m 1
 194.27734375 452.4921875 192 454 186 445.446289062 c 0
 173.61328125 427.7890625 132.303710938 410.884765625 72 420.6953125 c 0
 68.099609375 421.329101562 66 425 60 423 c 1
 48.2158203125 397.845703125 72.6669921875 388.692382812 80.263671875 373 c 0
 81.0341796875 371.408203125 79 368 82 368 c 1
 131.325195312 354.606445312 164.873046875 394.899414062 207 406 c 1
 236 424 194.97265625 428.026367188 196 454 c 1
178.5 500.14453125 m 1
 257.473632812 511.916015625 270.799804688 444.224609375 268.200195312 426.75 c 1
 263.283203125 343.241210938 213.599609375 282.290039062 200.599609375 320.735351562 c 1
 212.299804688 378.985351562 155.454101562 490.071289062 178.5 500.14453125 c 1
36 548 m 1
 23 525 57 508 66.5791015625 498 c 0
 244.489257812 312.28125 -68.0908203125 134.8828125 58 20 c 1
 344.4296875 -52.54296875 427.44921875 83.2529296875 408 324 c 1
 340 597 191 666 36 548 c 1
EndSplineSet
EndChar

StartChar: dcroat
Encoding: 240 273 24
Width: 312
Flags: HW
LayerCount: 3
Fore
SplineSet
130 423 m 5
 113.547014739 409 134.438728933 395 135 381 c 1
 137.041902319 353.707104307 301 369 294 382 c 5
 293.602113516 395.966526846 310.999151007 419.160368172 293 424 c 5
 220.786496237 409.801355023 185.990796568 424.618625573 130 423 c 5
161.26953125 202.547851562 m 1
 154 192 166.903320312 155.194335938 169.637695312 131.35546875 c 1
 166 120 130.166992188 110.923828125 123.611328125 161.866210938 c 1
 122.001953125 187.271484375 126.22265625 207.799804688 161.26953125 202.547851562 c 1
45 241 m 1
 -9 178 13 87 39 38 c 1
 66 19 73.50390625 -0.1650390625 154 4 c 1
 149.755859375 1.7646484375 251.663085938 18.09765625 276 38 c 0
 357.484375 104.634765625 203.209960938 357.541015625 282 529 c 1
 236.208007812 542.416992188 201 566 152 533 c 1
 101 505 231 336 185 267 c 1
 145.174804688 203.319335938 77.1513671875 268.224609375 45 241 c 1
EndSplineSet
EndChar
